<?xml version="1.0" standalone="no"?><!DOCTYPE svg PUBLIC "-//W3C//DTD SVG 1.1//EN" "http://www.w3.org/Graphics/SVG/1.1/DTD/svg11.dtd"><svg t="1578816568749" class="icon" viewBox="0 0 1024 1024" version="1.1" xmlns="http://www.w3.org/2000/svg" p-id="8598" xmlns:xlink="http://www.w3.org/1999/xlink" width="200" height="200"><defs><style type="text/css"></style></defs><path d="M319.7 64.1h-64.1l0.2 160h64.1l-0.2-160zM480 127.9l-128.1 0.1v64l128.2-0.1-0.1-64zM576 63.7l-64 0.1 0.2 160 64-0.1-0.2-160z" p-id="8599"></path><path d="M223.8 128.2l-64.1 0.1c-53.1 0.1-96.1 43.1-96 96.1l0.8 640c0.1 53 43.1 95.9 96.2 95.9h0.1l512.2-0.6-0.1-64-512.2 0.6c-17.7 0-32-14.3-32-32l-0.8-640c0-17.7 14.3-32 32-32l64.1-0.1-0.2-64z" p-id="8600"></path><path d="M513.2 702.8l-288.1 0.3c-17.7 0-32 14.3-32 32s14.3 32 32 32l288.1-0.3c17.7 0 32-14.3 32-32s-14.3-32-32-32zM609 510.7l-384.2 0.5c-17.7 0-32 14.3-32 32s14.3 32 32 32l384.1-0.5c17.7 0 32-14.3 32-32 0.1-17.7-14.2-32-31.9-32zM608.8 318.7s-0.1 0 0 0l-384.2 0.5c-17.7 0-32 14.3-32 32s14.3 32 32 32l384.1-0.5c17.7 0 32-14.3 32-32 0.1-17.7-14.2-32-31.9-32zM672.3 127.6h-0.1l-64 0.1 0.1 64 64-0.1c17.7 0 32 14.3 32 32l0.4 350 64 0.9-0.4-351c-0.1-52.9-43.1-95.9-96-95.9zM953.7 497C825 564.7 743.4 767.6 743.4 767.6l-50.2-99.9-103.6 64.4c44 16.1 106.8 67.7 160.1 135.3 37.7-70.9 153.9-215.9 210.4-228.7-22.1-51.5-9.5-93.4-6.4-141.7z" p-id="8601"></path></svg>