<?xml version="1.0" standalone="no"?><!DOCTYPE svg PUBLIC "-//W3C//DTD SVG 1.1//EN" "http://www.w3.org/Graphics/SVG/1.1/DTD/svg11.dtd"><svg t="1578817569980" class="icon" viewBox="0 0 1038 1024" version="1.1" xmlns="http://www.w3.org/2000/svg" p-id="15356" xmlns:xlink="http://www.w3.org/1999/xlink" width="202.734375" height="200"><defs><style type="text/css"></style></defs><path d="M263.68 0H64a64 64 0 0 0-64 64v896a64 64 0 0 0 64 64h199.68a64 64 0 0 0 64-64V64a64 64 0 0 0-64-64z m0 992V960H64V64h199.68v896zM618.88 0H419.2a64 64 0 0 0-64 64v896a64 64 0 0 0 64 64h199.68a64 64 0 0 0 64-64V64a64 64 0 0 0-64-64z m0 992V960H419.2V64h199.68v896zM974.72 0h-199.68a64 64 0 0 0-64 64v896a64 64 0 0 0 64 64h199.68a64 64 0 0 0 64-64V64a64 64 0 0 0-64-64z m0 992V960h-199.68V64h199.68v896z" p-id="15357"></path><path d="M99.84 177.28m32 0l64 0q32 0 32 32l0 351.36q0 32-32 32l-64 0q-32 0-32-32l0-351.36q0-32 32-32Z" p-id="15358"></path><path d="M163.84 742.4m-64 0a64 64 0 1 0 128 0 64 64 0 1 0-128 0Z" p-id="15359"></path><path d="M455.04 183.68m32 0l64 0q32 0 32 32l0 351.36q0 32-32 32l-64 0q-32 0-32-32l0-351.36q0-32 32-32Z" p-id="15360"></path><path d="M519.04 747.52m-64 0a64 64 0 1 0 128 0 64 64 0 1 0-128 0Z" p-id="15361"></path><path d="M810.88 183.68m32 0l64 0q32 0 32 32l0 351.36q0 32-32 32l-64 0q-32 0-32-32l0-351.36q0-32 32-32Z" p-id="15362"></path><path d="M874.88 747.52m-64 0a64 64 0 1 0 128 0 64 64 0 1 0-128 0Z" p-id="15363"></path></svg>